PathFileType	4	(X/Y/Z)	\\Move.snu.ac.kr\motion\Animal\091204_091205_Bird\091205_bird\Project 2\Capture day 2\Session 1\pigeon_025.trc
DataRate	CameraRate	NumFrames	NumMarkers	Units	OrigDataRate	OrigDataStartFrame	OrigNumFrames
240.0	240.0	26	14	mm	240.0	194	2738
Frame#	Time	14MarkersBird:Head			14MarkersBird:C_back			14MarkersBird:Spine			14MarkersBird:L-shoulder			14MarkersBird:L-elbow			14MarkersBird:L-wrist			14MarkersBird:L-hand			14MarkersBird:R-shoulder			14MarkersBird:R-elbow			14MarkersBird:R-Wrist			14MarkersBird:R-hand			14MarkersBird:C_Tail			14MarkersBird:L-Tale			14MarkersBird:R-Tale			
		X1	Y1	Z1	X2	Y2	Z2	X3	Y3	Z3	X4	Y4	Z4	X5	Y5	Z5	X6	Y6	Z6	X7	Y7	Z7	X8	Y8	Z8	X9	Y9	Z9	X10	Y10	Z10	X11	Y11	Z11	X12	Y12	Z12	X13	Y13	Z13	X14	Y14	Z14	

2126	8.854	347.64185	1759.66882	889.58185	330.98581	1764.46826	946.66577	311.29288	1755.52148	1000.91461	317.38785	1759.99890	917.25366	319.78561	1780.98779	950.94666	301.45114	1816.32117	926.61084	290.00586	1834.25769	948.48627	354.53674	1757.17969	929.79718	340.59116	1782.19604	956.71045	377.31265	1807.05151	950.89343	385.46432	1829.06897	985.62561	257.90250	1685.73975	1091.31775	209.08867	1745.94446	1007.35266	384.36771	1705.87097	1073.93298	
2127	8.858	349.66370	1756.65576	880.77441	332.38937	1760.52148	938.18970	312.00293	1751.10107	992.00397	318.97427	1756.35718	908.58649	321.56998	1778.18848	939.97540	301.04398	1814.80762	918.55835	295.26041	1836.26965	939.86102	356.76486	1753.02417	921.51367	343.41550	1779.02869	945.72961	379.90149	1805.47412	943.64752	384.52600	1833.85767	974.97791	257.80081	1684.22412	1083.90320	210.12727	1743.30371	997.11469	385.18488	1703.55029	1065.83496	
2128	8.863	351.68390	1753.55127	872.13104	333.72125	1756.49854	930.01111	312.83899	1746.72546	983.21912	320.43787	1752.92505	899.86304	322.10458	1775.38513	929.19592	298.92868	1811.76025	909.75470	296.53784	1835.95386	929.03522	359.13733	1748.81348	913.37677	347.64420	1775.52466	935.57471	384.30255	1801.81787	936.65778	388.40109	1834.30823	964.24500	257.92303	1683.18823	1076.76831	211.28262	1740.26807	986.65509	386.05695	1700.69836	1057.50500	
2129	8.867	353.68979	1750.36902	863.63318	334.90820	1752.41870	922.07288	313.79919	1742.45886	974.52094	321.86069	1749.63660	891.18921	321.44464	1772.41272	918.73517	295.15491	1806.94763	900.11603	293.12967	1833.29163	916.25989	361.56570	1744.66907	905.26605	352.81442	1771.57349	926.75018	390.40875	1795.77710	930.10596	397.15164	1830.00708	954.62970	258.18860	1682.25732	1069.45044	212.57300	1737.06934	976.20868	387.05057	1697.16101	1048.87463	
2130	8.871	355.66232	1747.13086	855.22266	335.92303	1748.34302	914.27136	314.88171	1738.36511	965.87024	323.32864	1746.35413	882.58789	319.73026	1769.04333	908.39825	290.04898	1800.21875	889.53113	285.55798	1827.91479	901.87122	363.95880	1740.51624	897.05408	358.34225	1767.04248	919.16638	397.85422	1787.22913	923.86737	409.54074	1820.78271	946.37231	258.54120	1681.01331	1061.62817	213.93871	1733.72559	966.03857	388.14066	1692.88586	1039.97888	
2131	8.875	357.60947	1743.87756	846.81268	336.94968	1744.36084	906.33710	316.08469	1734.50879	957.22791	324.88831	1742.99841	873.92932	317.14841	1765.00708	897.88715	284.34235	1791.52515	877.85577	275.55374	1819.35547	886.11072	366.31549	1736.19238	888.64990	363.94720	1761.64514	912.17511	405.94479	1776.34143	917.31415	423.72601	1806.84839	938.58130	258.99460	1679.12415	1053.19031	215.24976	1729.99365	956.30249	389.19113	1687.89612	1030.93140	
2132	8.879	359.56070	1740.64209	838.32690	338.11884	1740.54456	898.01038	317.40622	1730.95374	948.55481	326.53986	1739.50513	865.10376	314.04761	1760.13770	886.92303	278.97400	1780.88696	864.93512	265.33865	1807.42493	869.08020	368.73538	1731.65637	879.98389	369.75061	1755.09204	905.02802	413.85919	1763.47253	909.55432	437.92242	1788.81311	929.78424	259.61383	1676.40247	1044.18445	216.39694	1725.58398	946.99957	390.01715	1682.26514	1021.88110	
2133	8.883	361.53278	1737.44836	829.73608	339.34912	1736.95154	889.24951	318.84445	1727.76416	939.81183	328.22110	1735.81665	856.11108	310.85760	1754.37488	875.34039	274.92480	1768.42542	850.70984	256.81650	1792.29578	850.87769	371.20416	1727.01416	871.05322	375.91849	1747.43628	897.21265	420.83734	1749.00415	899.86694	450.57269	1767.50830	918.70447	260.47992	1672.80420	1034.70154	217.41663	1720.41321	937.98828	390.46582	1676.22607	1012.95239	
2134	8.887	363.52628	1734.28528	821.04333	340.59143	1733.61450	880.13617	320.39758	1725.00427	930.95978	329.85138	1731.93420	846.98926	308.03928	1747.74036	863.18280	273.08658	1754.37427	835.46136	251.32692	1774.36597	831.74371	373.60440	1722.47937	861.91608	382.24695	1739.06152	888.45740	426.17203	1733.35828	887.93329	460.34607	1743.92993	904.66626	261.68408	1668.49780	1024.86267	218.47528	1714.77222	929.09991	390.49615	1670.25012	1004.22607	
2135	8.892	365.52499	1731.09827	812.25409	341.87769	1730.51953	870.85986	322.07492	1722.66504	922.01514	331.43243	1727.97571	837.71558	306.04761	1740.35669	850.67285	274.03708	1739.17981	819.83655	249.77187	1754.18311	812.19196	375.85577	1718.25317	852.66028	388.14633	1730.22559	878.63953	429.21713	1717.17273	873.88641	466.17892	1719.28918	887.62567	263.32248	1663.88611	1014.86017	219.73418	1709.17761	920.27002	390.21317	1664.94946	995.76245	
2136	8.896	367.50778	1727.81958	803.36462	343.33548	1727.65662	861.55255	324.00290	1721.12170	912.90216	333.06036	1724.10474	828.28705	305.20697	1732.50171	838.15283	277.93503	1723.59192	804.66614	252.73396	1732.56543	793.11548	377.96359	1714.41235	843.34857	392.99164	1721.09839	867.79211	429.55267	1701.40063	858.23163	467.36542	1695.02393	868.08362	265.42261	1659.44812	1004.89935	221.26111	1704.03662	911.54974	389.87201	1660.85596	987.60156	
2137	8.900	369.46313	1724.37427	794.35706	345.04285	1724.99915	852.27124	325.91748	1719.32043	903.68024	334.82269	1720.42151	818.75385	305.59491	1724.58655	826.02356	284.61740	1708.65442	790.68768	260.39429	1710.74414	775.68604	379.97327	1710.91833	833.96045	396.44638	1712.11230	856.25385	427.20380	1687.14929	841.71887	463.75671	1672.72058	846.94781	267.91690	1655.51392	995.12396	223.02113	1699.44568	902.98828	389.79861	1658.23425	979.72449	
2138	8.904	371.39072	1720.69141	785.19666	346.99796	1722.50134	842.97070	327.88757	1717.56018	894.29425	336.78220	1716.96289	809.12866	307.00522	1717.04761	814.63721	293.50714	1695.55176	778.26788	272.28336	1690.39648	760.94714	381.92908	1707.68372	824.44348	398.59601	1703.88416	844.65503	422.76520	1675.41003	825.20532	455.96930	1653.92310	825.35077	270.67139	1652.15479	985.57196	224.94357	1695.20862	894.59290	390.27887	1656.94885	971.99097	
2139	8.908	373.31561	1716.73425	775.83746	349.15451	1720.09045	833.55688	329.89688	1715.57617	884.74561	338.94601	1713.69421	799.36157	309.05383	1710.24329	804.20856	303.56778	1685.37549	767.33826	287.19498	1673.43945	749.26306	383.89304	1704.62402	814.77954	399.87823	1696.85718	833.61078	417.41852	1666.94983	809.45746	445.48181	1639.88416	804.41327	273.53101	1649.25891	976.18372	226.98831	1690.94214	886.29987	391.46164	1656.43457	964.12286	
2140	8.913	375.29465	1712.51477	766.27600	351.44620	1717.63049	823.93610	331.95428	1713.14441	875.01782	341.28271	1710.51184	789.38348	311.33170	1704.43103	794.74811	313.43488	1678.92297	757.45471	303.26425	1661.51880	740.12970	385.94965	1701.65430	804.95959	400.83203	1691.22534	823.48480	412.70987	1662.17126	795.06250	434.50253	1631.26318	785.07880	276.39813	1646.64294	966.86322	229.15129	1686.22888	877.99280	393.29800	1655.84192	955.76831	
2141	8.917	377.37347	1708.07141	756.53864	353.82034	1714.93237	814.02759	334.06836	1710.24622	865.06573	343.74698	1707.28210	779.18219	313.51236	1699.78613	786.08868	321.77667	1676.30249	748.16357	318.25842	1655.39404	732.42126	388.11978	1698.65540	794.98358	401.93225	1687.01196	814.31958	410.00986	1660.91248	782.38391	425.45923	1627.80139	768.06189	279.28012	1644.09961	957.50842	231.46281	1680.82092	869.54523	395.55685	1654.33093	946.65344	
2142	8.921	379.55014	1703.40955	746.64081	356.25696	1711.82092	803.78650	336.24936	1707.02063	854.85461	346.29636	1703.87939	768.80896	315.45822	1696.42419	778.00232	327.80310	1676.86389	739.16296	330.09085	1654.43311	724.92236	390.35400	1695.50769	784.84625	403.46152	1684.21521	806.02222	409.99219	1662.39490	771.51917	420.21149	1628.24561	753.93866	282.24063	1641.38940	947.99652	233.94966	1674.84937	860.87634	397.92361	1651.42981	936.71063	
2143	8.925	381.78052	1698.50989	736.53412	358.78482	1708.21545	793.23242	338.50241	1703.60376	844.37750	348.89938	1700.20776	758.34644	317.28979	1694.37756	770.31555	331.40808	1679.52795	730.32086	337.39352	1656.75171	716.91394	392.59235	1692.09558	774.55109	405.39478	1682.80383	798.47644	412.51514	1665.60107	762.25824	419.41525	1630.80981	743.08850	285.30017	1638.27686	938.18311	236.57047	1668.79834	851.92401	400.12827	1647.22522	926.10272	
2144	8.929	384.05759	1693.42285	726.20184	361.45331	1704.12830	782.43536	340.82184	1700.06079	833.66846	351.53757	1696.19861	747.87579	319.35504	1693.53442	762.90356	333.00543	1683.26782	721.59674	339.96579	1660.26929	708.30493	394.81174	1688.30811	764.15637	407.36099	1682.68347	791.44238	416.93060	1669.66748	754.26813	422.44626	1633.97156	735.53137	288.36871	1634.60999	927.95135	239.19965	1663.29834	842.59924	402.05084	1642.25122	915.13733	
2145	8.933	386.43799	1688.23560	715.73468	364.26981	1699.62109	771.49731	343.20343	1696.39148	822.79639	354.18784	1691.81812	737.45917	322.12491	1693.55042	755.62701	333.38638	1687.41211	713.03711	338.61731	1663.73254	699.55829	397.00760	1684.15662	753.73401	408.78464	1683.62854	784.45050	422.41879	1674.04492	747.24347	428.03894	1637.02686	730.99469	291.27112	1630.38794	917.26379	241.68050	1658.84436	832.75476	403.74564	1637.20996	904.14233	
2146	8.938	388.96756	1683.00671	705.25323	367.19894	1694.79248	760.53076	345.64703	1692.52002	811.84210	356.83731	1687.10278	727.10675	326.00027	1693.84192	748.34686	333.47501	1691.63098	704.81921	334.56726	1666.94946	691.55701	399.13660	1679.86829	743.30548	409.12952	1685.22900	776.85724	428.07513	1678.51306	740.87573	434.93369	1640.09802	729.17633	293.83276	1625.75464	906.17053	243.91034	1655.60413	822.22052	405.39294	1632.67285	893.34998	
2147	8.942	391.63251	1677.78638	694.82007	370.19299	1689.78284	749.62439	348.09625	1688.41528	800.88751	359.52362	1682.20544	716.74634	331.14249	1693.79358	740.98560	334.17441	1695.65967	697.17297	329.13773	1670.45154	685.27142	401.12582	1675.75928	732.83679	408.15128	1686.91235	768.09583	432.96024	1682.99548	734.72931	442.05142	1643.82861	729.75488	295.95319	1620.92334	894.79688	245.90076	1653.39453	810.86719	407.22186	1628.87903	882.83209	
2148	8.946	394.38757	1672.63123	684.46155	373.20459	1684.75220	738.80896	350.49548	1684.04028	789.98822	362.32455	1677.32617	706.29224	337.43802	1692.98804	733.50720	336.22812	1699.14160	690.09418	323.80603	1674.86194	681.28522	402.92380	1671.96204	722.31641	406.04446	1688.04797	757.89722	436.28134	1687.18921	728.36475	448.44928	1649.06458	732.19873	297.61130	1616.12671	883.32294	247.76195	1651.82642	798.67908	409.42523	1625.70642	872.48248	
2149	8.950	397.18289	1667.57263	674.15393	376.20581	1679.85803	728.01807	352.79706	1679.40076	779.18994	365.26840	1672.58301	695.71387	344.52774	1691.21509	725.81592	339.87659	1701.60413	683.34705	320.11377	1680.53308	679.39178	404.54675	1668.32178	711.80011	403.29556	1688.15503	746.37933	437.79315	1690.59290	721.43500	453.21902	1656.51074	735.48370	298.81638	1611.56897	871.91931	249.63506	1650.52209	785.78955	412.11786	1622.80713	862.10919	
2150	8.954	399.98071	1662.62793	663.86676	379.16092	1675.13574	717.15759	355.00586	1674.53076	768.50909	368.30127	1667.93860	685.08514	351.86401	1688.41931	717.69324	344.68365	1702.79749	676.57001	319.25150	1687.40198	678.48669	406.11124	1664.54944	701.34473	400.53632	1687.02356	733.97900	437.95557	1692.84253	713.77618	455.56390	1666.32788	738.02112	299.56390	1607.40967	860.69672	251.63464	1649.28552	772.47638	415.29694	1619.88647	851.57617	
2151	8.958	402.78149	1657.78491	653.56134	381.99103	1670.45410	706.22687	357.17163	1669.41028	757.91217	371.31744	1663.25317	674.53149	358.85220	1684.72290	708.86292	349.77478	1702.87659	669.42133	321.52960	1694.99097	677.10657	407.79999	1660.42236	690.97003	398.43210	1684.66248	721.19641	437.55420	1693.93542	705.61102	455.21985	1677.91040	738.13959	299.86240	1603.69788	849.67126	253.82297	1648.11536	759.09808	418.82437	1616.87793	840.89972	
